<svg width="32" height="32" viewBox="0 0 32 32" fill="none" xmlns="http://www.w3.org/2000/svg">
<path d="M24.6043 15.4839C24.1449 14.6997 23.4893 14.0484 22.702 13.5942C22.101 13.2449 21.4794 13.023 20.7777 12.927V10.4142C21.118 10.2732 21.4082 10.0333 21.6107 9.72557C21.8132 9.41785 21.9188 9.05645 21.9137 8.6881C21.915 8.43935 21.867 8.19281 21.7727 7.96263C21.6784 7.73246 21.5395 7.5232 21.364 7.34686C21.1886 7.17053 20.98 7.0306 20.7503 6.93513C20.5206 6.83965 20.2743 6.7905 20.0256 6.7905C19.5217 6.7905 19.0384 6.99022 18.6815 7.34591C18.3247 7.7016 18.1233 8.18425 18.1217 8.6881C18.1217 9.4591 18.5308 10.1168 19.2341 10.4142V12.9129C18.6515 12.9972 18.0862 13.1746 17.5599 13.4384L10.8334 8.34508C10.8806 8.16728 10.9215 7.98319 10.9215 7.78965C10.9215 6.62843 9.98055 5.6875 8.81933 5.6875C7.65811 5.6875 6.71875 6.62843 6.71875 7.78965C6.71875 8.95087 7.65968 9.8918 8.8209 9.8918C9.21742 9.8918 9.58403 9.77537 9.9003 9.58498L10.3409 9.91855L16.3751 14.2692C16.0557 14.5619 15.7583 14.8954 15.5207 15.2699C15.0392 16.033 14.745 16.8717 14.745 17.7875V17.9763C14.7471 18.5973 14.859 19.2131 15.0754 19.7952C15.258 20.2924 15.5254 20.7456 15.8574 21.1547L13.8528 23.164C13.2597 22.9437 12.5941 23.09 12.1456 23.5385C11.8404 23.8422 11.6689 24.256 11.6704 24.6871C11.672 25.1182 11.8404 25.5289 12.1472 25.8357C12.454 26.1426 12.8647 26.3125 13.2958 26.3125C13.727 26.3125 14.1408 26.1426 14.4445 25.8357C14.7482 25.5289 14.9212 25.1182 14.9197 24.6871C14.9195 24.5216 14.8941 24.3571 14.8441 24.1993L16.9148 22.1287C17.198 22.3253 17.5049 22.4906 17.8353 22.6322C18.5144 22.93 19.2478 23.0843 19.9894 23.0853H20.131C20.9995 23.0853 21.8193 22.8808 22.5887 22.4638C23.3796 22.0397 24.0441 21.4138 24.5147 20.6496C24.9977 19.8786 25.2621 19.0242 25.2621 18.0848V18.0376C25.2621 17.114 25.0481 16.2628 24.6012 15.4823L24.6043 15.4839ZM22.0758 19.8298C21.5141 20.4545 20.8674 20.84 20.1373 20.84H19.9988C19.5818 20.84 19.1727 20.7251 18.7747 20.5143C18.3382 20.2873 17.9683 19.9505 17.7015 19.5372C17.412 19.1281 17.2547 18.6812 17.2547 18.2076V18.066C17.2547 17.6002 17.3444 17.1581 17.5694 16.7411C17.8101 16.2691 18.1358 15.9308 18.5685 15.6491C19.0012 15.3675 19.4465 15.2321 19.9532 15.2321H20.0004C20.4567 15.2321 20.8925 15.3218 21.3016 15.5311C21.7161 15.7491 22.0681 16.0691 22.3244 16.461C22.5781 16.854 22.7351 17.3016 22.7823 17.767L22.7933 18.0612C22.7933 18.7016 22.5478 19.2948 22.0585 19.833L22.0758 19.8298Z" fill="#F8761F"/>
</svg>
